# xmcd
#
# Track frame offsets:
#	150
#	7624
#	31288
#	70067
#	116351
#
# Disc length: 3027 seconds
#
# Revision: 0
# Processed by: cddbd v1.5.2PL0 Copyright (c) Steve Scherf et al.
# Submitted via: audiograbber 1.83.01
#
DISCID=2c0bd105
DTITLE=Grateful Dead - 90-07-12 RFK Stadium, Washington DC
DYEAR=1900
DGENRE=
TTITLE0=Tuning
TTITLE1=Box Of Rain
TTITLE2=Victim Or The Rain
TTITLE3=Foolish Heart
TTITLE4=Dark Star
EXTD=
EXTT0=
EXTT1=
EXTT2=
EXTT3=
EXTT4=
PLAYORDER=
